<svg id="Ebene_1" data-name="Ebene 1" xmlns="http://www.w3.org/2000/svg" viewBox="0 0 66.06 66.06"><defs><style>.cls-1{fill:#ffa600;}.cls-2{fill:#b3cb2d;}.cls-3{fill:#191715;}</style></defs><path class="cls-1" d="M47.46,34V26.89a1.17,1.17,0,0,0-1.83-1L17.41,45.41a4.87,4.87,0,0,1-7.64-4V32A9.75,9.75,0,0,1,14,24l8.39-5.8a4.8,4.8,0,0,0,2.08-4V7.56l0-6.39a1.17,1.17,0,0,0-1.84-1L16.75,4.27a4.84,4.84,0,0,0-2.08,4v3.42l-7.2,5A17.3,17.3,0,0,0,0,30.85V41.39A14.65,14.65,0,0,0,23,53.45L45.38,38A4.84,4.84,0,0,0,47.46,34Z"/><path class="cls-2" d="M39.13,12.6,16.73,28.06a4.83,4.83,0,0,0-2.09,4v7.11a1.18,1.18,0,0,0,1.84,1L44.7,20.64a4.87,4.87,0,0,1,7.64,4V34a9.75,9.75,0,0,1-4.21,8l-7.5,5.18-.86.59h0a4.82,4.82,0,0,0-2.08,4v1.81l0,11.24a1.17,1.17,0,0,0,1.84,1l5.89-4.06a4.83,4.83,0,0,0,2.08-4V54.38l7.18-5a17.29,17.29,0,0,0,7.47-14.23V24.65A14.65,14.65,0,0,0,39.13,12.6Z"/></svg>